<svg width="176" height="148" viewBox="0 0 176 148" fill="none" xmlns="http://www.w3.org/2000/svg">
<path fill-rule="evenodd" clip-rule="evenodd" d="M98.0622 46.2532L26.9288 117.387C26.7455 117.571 26.6128 117.8 26.5437 118.052C26.4745 118.303 26.4712 118.567 26.534 118.82C26.5968 119.073 26.7237 119.305 26.9023 119.494C27.0809 119.684 27.3053 119.824 27.5539 119.901C40.4657 123.878 65.7576 120.487 94.7355 114.94C113.841 111.283 131.851 104.59 143.864 92.5726C158.077 78.3638 163.785 60.4512 149.576 46.2281C142.746 39.4041 133.485 35.5711 123.83 35.5711C114.175 35.5711 104.914 39.4041 98.0838 46.2281L98.0622 46.2532Z" fill="#FE0000"/>
<path fill-rule="evenodd" clip-rule="evenodd" d="M64.626 79.6787C81.971 62.3301 122.255 6.74905 149.106 17.0634C172.817 26.1634 156.316 73.5246 156.316 73.5246C156.316 73.5246 90.8016 79.6787 64.626 79.6787Z" fill="#FE0000"/>
<path fill-rule="evenodd" clip-rule="evenodd" d="M86.4833 57.7387L0.1604 144.065L3.92185 146.192C6.1089 147.426 8.64712 147.89 11.1293 147.509C13.6114 147.128 15.8936 145.924 17.6096 144.09L92.623 63.8857L86.4833 57.7423V57.7387Z" fill="#810604"/>
<path fill-rule="evenodd" clip-rule="evenodd" d="M160.39 27.4711C156.438 20.7709 142.6 0.860777 113.92 0.361406C113.817 0.360599 113.716 0.388378 113.628 0.441655C113.539 0.494931 113.468 0.571617 113.421 0.663184C113.375 0.755762 113.356 0.85908 113.366 0.961766C113.375 1.06445 113.413 1.16252 113.474 1.24518C115.939 4.78389 123.864 18.3136 111.398 30.7763L153.848 75.0874L163.738 43.1456L160.39 27.4711Z" fill="#FE0000"/>
<path fill-rule="evenodd" clip-rule="evenodd" d="M160.031 59.0968C160.031 59.0968 155.26 59.8692 154.757 56.0646C151.905 34.4408 141.378 42.1972 136.456 25.1683C134.965 20.0165 157.653 23.275 157.653 23.275C157.653 23.275 163.71 30.6147 163.724 39.3626C163.724 48.2543 160.031 59.1004 160.031 59.1004V59.0968Z" fill="black"/>
<path fill-rule="evenodd" clip-rule="evenodd" d="M160.214 27.2053C166.386 29.4938 169.555 31.3117 175.508 35.0803C175.602 35.14 175.681 35.2208 175.738 35.3162C175.795 35.4116 175.83 35.519 175.838 35.63C175.845 35.7409 175.826 35.8519 175.782 35.9541C175.738 36.0564 175.672 36.1471 175.587 36.2191C171.42 39.7435 167.719 42.7074 163.624 44.1911C158.738 43.293 154.067 40.2393 153.539 36.8155C153.025 33.478 157.653 30.1584 160.218 27.1909L160.214 27.2053Z" fill="#B90404"/>
<path fill-rule="evenodd" clip-rule="evenodd" d="M89.6162 89.8817L30.4641 30.7296C30.31 30.5761 30.1982 30.3854 30.1396 30.176C30.0811 29.9665 30.0776 29.7455 30.1297 29.5344C30.1818 29.3232 30.2875 29.1291 30.4368 28.9709C30.586 28.8127 30.7736 28.6958 30.9814 28.6316C41.7197 25.3228 67.1517 23.663 91.2328 28.2723C107.119 31.3152 122.442 37.0742 132.433 47.0652C135.244 49.8765 137.474 53.2141 138.996 56.8874C140.517 60.5606 141.3 64.4976 141.3 68.4734C141.3 72.4493 140.517 76.3863 138.996 80.0595C137.474 83.7328 135.244 87.0703 132.433 89.8817C129.621 92.6931 126.284 94.9232 122.611 96.4447C118.937 97.9662 115 98.7493 111.024 98.7493C107.049 98.7493 103.112 97.9662 99.4384 96.4447C95.7651 94.9232 92.4275 92.6931 89.6162 89.8817Z" fill="#AE0707"/>
<path fill-rule="evenodd" clip-rule="evenodd" d="M101.712 59.1543C103.555 57.3117 105.903 56.057 108.459 55.5488C111.016 55.0406 113.665 55.3017 116.073 56.2992C118.48 57.2967 120.538 58.9857 121.986 61.1527C123.434 63.3197 124.207 65.8673 124.207 68.4735C124.207 71.0796 123.434 73.6272 121.986 75.7942C120.538 77.9612 118.48 79.6502 116.073 80.6477C113.665 81.6452 111.016 81.9063 108.459 81.3981C105.903 80.8899 103.555 79.6352 101.712 77.7926C99.765 75.8455 95.7377 71.5523 93.8085 69.4973C93.5214 69.1894 93.3632 68.7831 93.3665 68.3621C93.3698 67.9411 93.5345 67.5373 93.8265 67.234C95.7701 65.2222 99.8189 61.0404 101.705 59.1543H101.712Z" fill="#FE0000"/>
</svg>
