<svg width="282" height="102" viewBox="0 0 282 102" fill="none" xmlns="http://www.w3.org/2000/svg">
<g clipPath="url(#clip0_301_1362)">
<mask id="mask0_301_1362" style="mask-type:luminance" maskUnits="userSpaceOnUse" x="0" y="0" width="282" height="102">
<path d="M281.402 0H0V101.712H281.402V0Z" fill="white"/>
</mask>
<g mask="url(#mask0_301_1362)">
<path fill-rule="evenodd" clip-rule="evenodd" d="M35.6215 19.8525C36.2259 17.5777 36.4182 15.0579 34.6324 11.4498C35.759 9.27613 35.3743 6.42359 33.1215 4.07683C31.0611 1.90615 25.5115 0.722601 22.7916 0.259125C34.7425 10.4602 33.6437 17.8912 32.7921 20.3487C32.2974 20.4526 31.803 20.5652 31.3083 20.6872C24.5224 18.8775 21.0331 16.7934 16.6649 12.9466C17.5165 10.7493 16.912 8.04644 14.6317 5.91645C12.5713 4.01364 7.5713 3.14903 4.68661 2.79765C6.22513 5.69937 13.3954 17.025 26.3079 22.2908C11.0327 28.283 0.208252 43.1519 0.208252 60.5267C0.208252 83.1883 18.6153 101.586 41.281 101.586C63.9463 101.586 82.3533 83.1883 82.3533 60.5267C82.3533 37.8648 63.9463 19.4662 41.281 19.4662C39.3577 19.4662 37.4896 19.5981 35.6215 19.8525ZM28.561 30.3473C15.8134 39.425 13.643 58.3109 23.7532 72.4957C33.836 86.6804 52.4076 90.8272 65.1551 81.7493C77.903 72.672 80.0731 53.786 69.963 39.6013C59.8803 25.4161 41.3087 21.2699 28.561 30.3473ZM61.6938 43.4934C65.1554 43.4934 67.9577 46.3059 67.9577 49.7709C67.9577 53.2355 65.1554 56.0483 61.6938 56.0483C58.232 56.0483 55.4022 53.2355 55.4022 49.7709C55.4022 46.3059 58.232 43.4934 61.6938 43.4934ZM44.1107 43.4934C47.5723 43.4934 50.4023 46.3059 50.4023 49.7709C50.4023 53.2355 47.5723 56.0483 44.1107 56.0483C40.6491 56.0483 37.8468 53.2355 37.8468 49.7709C37.8468 46.3059 40.6491 43.4934 44.1107 43.4934ZM43.4514 45.7006C42.1874 46.6089 42.1054 48.6789 43.2591 50.3204C44.4405 51.9617 46.4186 52.5568 47.6823 51.6485C48.9734 50.7399 49.0563 48.6699 47.9024 47.0287C46.721 45.3871 44.7425 44.7919 43.4514 45.7006ZM61.0343 45.7006C59.7431 46.6089 59.6608 48.6789 60.8422 50.3204C61.9959 51.9617 63.974 52.5568 65.2652 51.6485C66.5292 50.7399 66.6111 48.6699 65.4575 47.0287C64.2761 45.3871 62.298 44.7919 61.0343 45.7006ZM2.79085 4.08148C3.28536 6.77305 4.52189 12.3485 6.71976 14.3977C8.61541 16.1623 10.8134 16.7486 12.7365 16.3203C7.32426 11.4559 4.02715 6.32909 2.79085 4.08148ZM21.528 2.17017C21.8851 5.05295 22.819 10.0473 24.7421 12.0666C26.5004 13.9076 28.6158 14.6334 30.5115 14.3639C29.6598 11.3158 27.2974 7.16013 21.528 2.17017Z" fill="#F68C31"/>
<path d="M129.072 66.9438C129.072 71.1389 128.314 74.7638 126.799 77.8195C125.285 80.8748 123.207 83.2315 120.565 84.8888C117.924 86.5457 114.908 87.3745 111.515 87.3745C108.123 87.3745 105.107 86.5457 102.465 84.8888C99.824 83.2315 97.746 80.8748 96.2315 77.8195C94.7166 74.7638 93.959 71.1389 93.959 66.9438C93.959 62.7489 94.7166 59.1237 96.2315 56.0683C97.746 53.0127 99.824 50.6564 102.465 48.9991C105.107 47.3421 108.123 46.5133 111.515 46.5133C114.908 46.5133 117.924 47.3421 120.565 48.9991C123.207 50.6564 125.285 53.0127 126.799 56.0683C128.314 59.1237 129.072 62.7489 129.072 66.9438ZM124.411 66.9438C124.411 63.5001 123.834 60.5933 122.682 58.224C121.543 55.8547 119.996 54.0615 118.041 52.8444C116.099 51.6275 113.923 51.0188 111.515 51.0188C109.107 51.0188 106.926 51.6275 104.971 52.8444C103.029 54.0615 101.481 55.8547 100.329 58.224C99.1897 60.5933 98.6202 63.5001 98.6202 66.9438C98.6202 70.3878 99.1897 73.2946 100.329 75.6638C101.481 78.0331 103.029 79.8263 104.971 81.0434C106.926 82.2603 109.107 82.8687 111.515 82.8687C113.923 82.8687 116.099 82.2603 118.041 81.0434C119.996 79.8263 121.543 78.0331 122.682 75.6638C123.834 73.2946 124.411 70.3878 124.411 66.9438Z" fill="#F68C31"/>
<path d="M168.135 59.4865H163.319C163.034 58.101 162.535 56.8839 161.823 55.8353C161.124 54.7865 160.27 53.9062 159.26 53.1939C158.263 52.469 157.156 51.9253 155.939 51.5628C154.722 51.2001 153.453 51.0188 152.132 51.0188C149.724 51.0188 147.543 51.6275 145.588 52.8444C143.645 54.0615 142.098 55.8547 140.946 58.224C139.807 60.5933 139.237 63.5001 139.237 66.9438C139.237 70.3878 139.807 73.2946 140.946 75.6638C142.098 78.0331 143.645 79.8263 145.588 81.0434C147.543 82.2603 149.724 82.8687 152.132 82.8687C153.453 82.8687 154.722 82.6875 155.939 82.325C157.156 81.9625 158.263 81.4253 159.26 80.713C160.27 79.9881 161.124 79.1014 161.823 78.0525C162.535 76.991 163.034 75.7739 163.319 74.4014H168.135C167.772 76.4341 167.112 78.2532 166.154 79.8587C165.196 81.4642 164.005 82.8299 162.581 83.9564C161.156 85.07 159.557 85.9179 157.784 86.5004C156.023 87.0833 154.139 87.3745 152.132 87.3745C148.74 87.3745 145.723 86.5457 143.082 84.8888C140.441 83.2315 138.363 80.8748 136.848 77.8195C135.333 74.7638 134.576 71.1389 134.576 66.9438C134.576 62.7489 135.333 59.1237 136.848 56.0683C138.363 53.0127 140.441 50.6564 143.082 48.9991C145.723 47.3421 148.74 46.5133 152.132 46.5133C154.139 46.5133 156.023 46.8046 157.784 47.3874C159.557 47.9699 161.156 48.8243 162.581 49.9508C164.005 51.0641 165.196 52.4237 166.154 54.0292C167.112 55.6217 167.772 57.4408 168.135 59.4865Z" fill="#F68C31"/>
<path d="M175.961 86.8305H170.911L185.516 47.057H190.487L205.091 86.8305H200.042L188.157 53.3496H187.846L175.961 86.8305ZM177.825 71.2942H198.178V75.5667H177.825V71.2942Z" fill="#F68C31"/>
<path d="M225.202 86.8305H212.928V47.057H225.746C229.604 47.057 232.906 47.8534 235.651 49.446C238.395 51.0253 240.499 53.2978 241.962 56.2625C243.425 59.2146 244.157 62.7489 244.157 66.8661C244.157 71.0091 243.419 74.5761 241.943 77.5671C240.467 80.5447 238.318 82.8363 235.495 84.4418C232.673 86.0344 229.242 86.8305 225.202 86.8305ZM217.745 82.558H224.891C228.18 82.558 230.905 81.9237 233.067 80.6548C235.23 79.3862 236.842 77.58 237.903 75.2366C238.965 72.893 239.496 70.103 239.496 66.8661C239.496 63.6554 238.971 60.891 237.923 58.5735C236.874 56.2431 235.308 54.4564 233.223 53.2133C231.138 51.9577 228.542 51.3298 225.435 51.3298H217.745V82.558Z" fill="#F68C31"/>
<path d="M253.465 86.8305H248.416L263.02 47.057H267.992L282.596 86.8305H277.547L265.661 53.3496H265.35L253.465 86.8305ZM255.329 71.2942H275.682V75.5667H255.329V71.2942Z" fill="#F68C31"/>
</g>
</g>
<defs>
<clipPath id="clip0_301_1362">
<rect width="281.402" height="101.712" fill="white"/>
</clipPath>
</defs>
</svg>
