<svg width="35" height="44" viewBox="0 0 35 44" fill="none" xmlns="http://www.w3.org/2000/svg">
<path fill-rule="evenodd" clip-rule="evenodd" d="M14.9931 9.10399C15.2452 8.1552 15.3254 7.10421 14.5806 5.59933C15.0504 4.69271 14.89 3.50294 13.9504 2.52413C13.0909 1.61878 10.7763 1.12513 9.6419 0.931824C14.6265 5.18658 14.1682 8.28595 13.8129 9.31093C13.6067 9.35425 13.4004 9.40123 13.1941 9.45211C10.3638 8.69732 8.90845 7.82806 7.08651 6.2236C7.44173 5.30713 7.18959 4.17982 6.23852 3.29142C5.37911 2.49778 3.2937 2.13717 2.09053 1.99061C2.73222 3.20089 5.72287 7.92465 11.1085 10.121C4.73742 12.6202 0.222663 18.8218 0.222663 26.0687C0.222663 35.5206 7.90004 43.1939 17.3535 43.1939C26.807 43.1939 34.4844 35.5206 34.4844 26.0687C34.4844 16.6167 26.807 8.94288 17.3535 8.94288C16.5514 8.94288 15.7723 8.99788 14.9931 9.10399ZM12.0482 13.4812C6.73138 17.2674 5.82613 25.1445 10.043 31.0608C14.2483 36.9771 21.9944 38.7066 27.3112 34.9204C32.6281 31.1343 33.5333 23.2572 29.3165 17.3409C25.1111 11.4245 17.3651 9.69515 12.0482 13.4812ZM25.8675 18.9643C27.3113 18.9643 28.4802 20.1374 28.4802 21.5826C28.4802 23.0277 27.3113 24.2008 25.8675 24.2008C24.4237 24.2008 23.2434 23.0277 23.2434 21.5826C23.2434 20.1374 24.4237 18.9643 25.8675 18.9643ZM18.5339 18.9643C19.9777 18.9643 21.158 20.1374 21.158 21.5826C21.158 23.0277 19.9777 24.2008 18.5339 24.2008C17.0901 24.2008 15.9212 23.0277 15.9212 21.5826C15.9212 20.1374 17.0901 18.9643 18.5339 18.9643ZM18.2588 19.8849C17.7317 20.2637 17.6974 21.1271 18.1787 21.8118C18.6714 22.4963 19.4964 22.7445 20.0235 22.3657C20.5621 21.9867 20.5965 21.1233 20.1153 20.4388C19.6225 19.7541 18.7974 19.5059 18.2588 19.8849ZM25.5924 19.8849C25.0539 20.2637 25.0196 21.1271 25.5123 21.8118C25.9936 22.4963 26.8185 22.7445 27.3571 22.3657C27.8842 21.9867 27.9185 21.1233 27.4372 20.4388C26.9445 19.7541 26.1195 19.5059 25.5924 19.8849ZM1.29983 2.52608C1.50609 3.6487 2.02182 5.97414 2.93853 6.82885C3.72918 7.56485 4.64593 7.80938 5.44804 7.63073C3.19066 5.60184 1.81548 3.46353 1.29983 2.52608ZM9.11485 1.72889C9.26381 2.93126 9.65332 5.01436 10.4554 5.85658C11.1888 6.62443 12.0711 6.92717 12.8618 6.81476C12.5066 5.54341 11.5212 3.81015 9.11485 1.72889Z" fill="#F68C31"/>
</svg>
